<mxfile host="app.diagrams.net" modified="2024-04-16T05:16:35.420Z" agent="Mozilla/5.0 (Windows NT 10.0; WOW64) AppleWebKit/537.36 (KHTML, like Gecko) Chrome/102.0.0.0 Safari/537.36" etag="2XLLP_3xHIOOj_srApca" version="24.2.5" type="device">
  <diagram name="Trang-1" id="z57Yba-8YpBVJ1lxKQQG">
    <mxGraphModel dx="2575" dy="982" grid="1" gridSize="10" guides="1" tooltips="1" connect="1" arrows="1" fold="1" page="1" pageScale="1" pageWidth="827" pageHeight="1169" math="0" shadow="0">
      <root>
        <mxCell id="0" />
        <mxCell id="1" parent="0" />
        <mxCell id="5MsSFUGhWeLwhrC4jnc_-38" value="" style="endArrow=none;html=1;rounded=0;entryX=0.366;entryY=0.859;entryDx=0;entryDy=0;entryPerimeter=0;exitX=0.405;exitY=0.023;exitDx=0;exitDy=0;exitPerimeter=0;" parent="1" edge="1">
          <mxGeometry width="50" height="50" relative="1" as="geometry">
            <mxPoint x="298.57" y="1064.9399999999998" as="sourcePoint" />
            <mxPoint x="299.42" y="999.0000000000001" as="targetPoint" />
          </mxGeometry>
        </mxCell>
        <mxCell id="5MsSFUGhWeLwhrC4jnc_-30" value="" style="group" parent="1" vertex="1" connectable="0">
          <mxGeometry x="70" y="690" width="280" height="300" as="geometry" />
        </mxCell>
        <mxCell id="5MsSFUGhWeLwhrC4jnc_-7" value="Nhân viên" style="rounded=0;whiteSpace=wrap;html=1;" parent="5MsSFUGhWeLwhrC4jnc_-30" vertex="1">
          <mxGeometry x="160" y="60" width="120" height="60" as="geometry" />
        </mxCell>
        <mxCell id="5MsSFUGhWeLwhrC4jnc_-8" value="&lt;u&gt;Mã nhân viên&lt;/u&gt;" style="ellipse;whiteSpace=wrap;html=1;" parent="5MsSFUGhWeLwhrC4jnc_-30" vertex="1">
          <mxGeometry width="120" height="40" as="geometry" />
        </mxCell>
        <mxCell id="5MsSFUGhWeLwhrC4jnc_-9" value="Tên" style="ellipse;whiteSpace=wrap;html=1;" parent="5MsSFUGhWeLwhrC4jnc_-30" vertex="1">
          <mxGeometry y="60" width="120" height="35" as="geometry" />
        </mxCell>
        <mxCell id="5MsSFUGhWeLwhrC4jnc_-10" value="Địa chỉ" style="ellipse;whiteSpace=wrap;html=1;" parent="5MsSFUGhWeLwhrC4jnc_-30" vertex="1">
          <mxGeometry y="120" width="120" height="30" as="geometry" />
        </mxCell>
        <mxCell id="5MsSFUGhWeLwhrC4jnc_-11" value="Ngày sinh" style="ellipse;whiteSpace=wrap;html=1;" parent="5MsSFUGhWeLwhrC4jnc_-30" vertex="1">
          <mxGeometry y="170" width="120" height="30" as="geometry" />
        </mxCell>
        <mxCell id="5MsSFUGhWeLwhrC4jnc_-12" value="Phái" style="ellipse;whiteSpace=wrap;html=1;" parent="5MsSFUGhWeLwhrC4jnc_-30" vertex="1">
          <mxGeometry y="220" width="120" height="30" as="geometry" />
        </mxCell>
        <mxCell id="5MsSFUGhWeLwhrC4jnc_-14" value="Lương" style="ellipse;whiteSpace=wrap;html=1;" parent="5MsSFUGhWeLwhrC4jnc_-30" vertex="1">
          <mxGeometry y="270" width="120" height="30" as="geometry" />
        </mxCell>
        <mxCell id="5MsSFUGhWeLwhrC4jnc_-15" value="" style="endArrow=none;html=1;rounded=0;exitX=1;exitY=0.5;exitDx=0;exitDy=0;entryX=0;entryY=0.5;entryDx=0;entryDy=0;" parent="5MsSFUGhWeLwhrC4jnc_-30" source="5MsSFUGhWeLwhrC4jnc_-8" target="5MsSFUGhWeLwhrC4jnc_-7" edge="1">
          <mxGeometry width="50" height="50" relative="1" as="geometry">
            <mxPoint x="200" y="190" as="sourcePoint" />
            <mxPoint x="250" y="140" as="targetPoint" />
          </mxGeometry>
        </mxCell>
        <mxCell id="5MsSFUGhWeLwhrC4jnc_-16" value="" style="endArrow=none;html=1;rounded=0;exitX=1;exitY=0.5;exitDx=0;exitDy=0;entryX=0;entryY=0.5;entryDx=0;entryDy=0;" parent="5MsSFUGhWeLwhrC4jnc_-30" source="5MsSFUGhWeLwhrC4jnc_-9" target="5MsSFUGhWeLwhrC4jnc_-7" edge="1">
          <mxGeometry width="50" height="50" relative="1" as="geometry">
            <mxPoint x="130" y="30" as="sourcePoint" />
            <mxPoint x="170" y="100" as="targetPoint" />
          </mxGeometry>
        </mxCell>
        <mxCell id="5MsSFUGhWeLwhrC4jnc_-17" value="" style="endArrow=none;html=1;rounded=0;exitX=1;exitY=0.5;exitDx=0;exitDy=0;entryX=0;entryY=0.5;entryDx=0;entryDy=0;" parent="5MsSFUGhWeLwhrC4jnc_-30" source="5MsSFUGhWeLwhrC4jnc_-10" target="5MsSFUGhWeLwhrC4jnc_-7" edge="1">
          <mxGeometry width="50" height="50" relative="1" as="geometry">
            <mxPoint x="130" y="88" as="sourcePoint" />
            <mxPoint x="170" y="100" as="targetPoint" />
          </mxGeometry>
        </mxCell>
        <mxCell id="5MsSFUGhWeLwhrC4jnc_-18" value="" style="endArrow=none;html=1;rounded=0;exitX=1;exitY=0.5;exitDx=0;exitDy=0;entryX=0;entryY=0.5;entryDx=0;entryDy=0;" parent="5MsSFUGhWeLwhrC4jnc_-30" source="5MsSFUGhWeLwhrC4jnc_-11" target="5MsSFUGhWeLwhrC4jnc_-7" edge="1">
          <mxGeometry width="50" height="50" relative="1" as="geometry">
            <mxPoint x="130" y="145" as="sourcePoint" />
            <mxPoint x="170" y="100" as="targetPoint" />
          </mxGeometry>
        </mxCell>
        <mxCell id="5MsSFUGhWeLwhrC4jnc_-19" value="" style="endArrow=none;html=1;rounded=0;exitX=1;exitY=0.5;exitDx=0;exitDy=0;entryX=0;entryY=0.5;entryDx=0;entryDy=0;" parent="5MsSFUGhWeLwhrC4jnc_-30" source="5MsSFUGhWeLwhrC4jnc_-12" target="5MsSFUGhWeLwhrC4jnc_-7" edge="1">
          <mxGeometry width="50" height="50" relative="1" as="geometry">
            <mxPoint x="130" y="195" as="sourcePoint" />
            <mxPoint x="170" y="100" as="targetPoint" />
          </mxGeometry>
        </mxCell>
        <mxCell id="5MsSFUGhWeLwhrC4jnc_-20" value="" style="endArrow=none;html=1;rounded=0;exitX=1;exitY=0.5;exitDx=0;exitDy=0;entryX=0;entryY=0.5;entryDx=0;entryDy=0;" parent="5MsSFUGhWeLwhrC4jnc_-30" source="5MsSFUGhWeLwhrC4jnc_-14" target="5MsSFUGhWeLwhrC4jnc_-7" edge="1">
          <mxGeometry width="50" height="50" relative="1" as="geometry">
            <mxPoint x="140" y="205" as="sourcePoint" />
            <mxPoint x="180" y="110" as="targetPoint" />
          </mxGeometry>
        </mxCell>
        <mxCell id="5MsSFUGhWeLwhrC4jnc_-43" value="" style="endArrow=none;html=1;rounded=0;entryX=0.5;entryY=1;entryDx=0;entryDy=0;" parent="5MsSFUGhWeLwhrC4jnc_-30" target="5MsSFUGhWeLwhrC4jnc_-42" edge="1">
          <mxGeometry width="50" height="50" relative="1" as="geometry">
            <mxPoint x="220" y="60" as="sourcePoint" />
            <mxPoint x="270" y="10" as="targetPoint" />
          </mxGeometry>
        </mxCell>
        <mxCell id="5MsSFUGhWeLwhrC4jnc_-87" value="(0,n)" style="text;html=1;align=center;verticalAlign=middle;whiteSpace=wrap;rounded=0;" parent="5MsSFUGhWeLwhrC4jnc_-30" vertex="1">
          <mxGeometry x="220" y="135" width="60" height="30" as="geometry" />
        </mxCell>
        <mxCell id="5MsSFUGhWeLwhrC4jnc_-33" value="" style="group" parent="1" vertex="1" connectable="0">
          <mxGeometry x="255" y="910" width="100" height="100" as="geometry" />
        </mxCell>
        <mxCell id="5MsSFUGhWeLwhrC4jnc_-40" value="" style="endArrow=none;html=1;rounded=0;entryX=0.366;entryY=0.859;entryDx=0;entryDy=0;entryPerimeter=0;exitX=0.405;exitY=0.023;exitDx=0;exitDy=0;exitPerimeter=0;" parent="5MsSFUGhWeLwhrC4jnc_-33" edge="1">
          <mxGeometry width="50" height="50" relative="1" as="geometry">
            <mxPoint x="53" y="158" as="sourcePoint" />
            <mxPoint x="54" y="92" as="targetPoint" />
          </mxGeometry>
        </mxCell>
        <mxCell id="5MsSFUGhWeLwhrC4jnc_-32" value="" style="rhombus;whiteSpace=wrap;html=1;" parent="5MsSFUGhWeLwhrC4jnc_-33" vertex="1">
          <mxGeometry width="100" height="100" as="geometry" />
        </mxCell>
        <mxCell id="5MsSFUGhWeLwhrC4jnc_-31" value="Quan hệ" style="rhombus;whiteSpace=wrap;html=1;" parent="5MsSFUGhWeLwhrC4jnc_-33" vertex="1">
          <mxGeometry x="10" y="10" width="80" height="80" as="geometry" />
        </mxCell>
        <mxCell id="5MsSFUGhWeLwhrC4jnc_-36" value="" style="group" parent="1" vertex="1" connectable="0">
          <mxGeometry x="230" y="1060" width="150" height="80" as="geometry" />
        </mxCell>
        <mxCell id="5MsSFUGhWeLwhrC4jnc_-35" value="" style="rounded=0;whiteSpace=wrap;html=1;" parent="5MsSFUGhWeLwhrC4jnc_-36" vertex="1">
          <mxGeometry width="150" height="80" as="geometry" />
        </mxCell>
        <mxCell id="5MsSFUGhWeLwhrC4jnc_-34" value="Nhân thân" style="rounded=0;whiteSpace=wrap;html=1;" parent="5MsSFUGhWeLwhrC4jnc_-36" vertex="1">
          <mxGeometry x="15" y="10" width="120" height="60" as="geometry" />
        </mxCell>
        <mxCell id="5MsSFUGhWeLwhrC4jnc_-41" value="" style="endArrow=none;html=1;rounded=0;entryX=0.5;entryY=1;entryDx=0;entryDy=0;exitX=0.5;exitY=0;exitDx=0;exitDy=0;" parent="1" source="5MsSFUGhWeLwhrC4jnc_-32" target="5MsSFUGhWeLwhrC4jnc_-7" edge="1">
          <mxGeometry width="50" height="50" relative="1" as="geometry">
            <mxPoint x="70" y="1110" as="sourcePoint" />
            <mxPoint x="120" y="1060" as="targetPoint" />
          </mxGeometry>
        </mxCell>
        <mxCell id="5MsSFUGhWeLwhrC4jnc_-42" value="Làm trưởng phòng" style="rhombus;whiteSpace=wrap;html=1;" parent="1" vertex="1">
          <mxGeometry x="160" y="500" width="80" height="100" as="geometry" />
        </mxCell>
        <mxCell id="5MsSFUGhWeLwhrC4jnc_-44" value="" style="endArrow=none;html=1;rounded=0;entryX=0.5;entryY=1;entryDx=0;entryDy=0;exitX=0.5;exitY=0;exitDx=0;exitDy=0;" parent="1" source="5MsSFUGhWeLwhrC4jnc_-42" target="GP8e4brnJldBaqmGKM5T-2" edge="1">
          <mxGeometry width="50" height="50" relative="1" as="geometry">
            <mxPoint x="270" y="550" as="sourcePoint" />
            <mxPoint x="320" y="500" as="targetPoint" />
          </mxGeometry>
        </mxCell>
        <mxCell id="5MsSFUGhWeLwhrC4jnc_-45" value="" style="group" parent="1" vertex="1" connectable="0">
          <mxGeometry x="60" y="220" width="290" height="210" as="geometry" />
        </mxCell>
        <mxCell id="GP8e4brnJldBaqmGKM5T-2" value="Phòng ban" style="rounded=0;whiteSpace=wrap;html=1;" parent="5MsSFUGhWeLwhrC4jnc_-45" vertex="1">
          <mxGeometry x="160" y="60" width="120" height="60" as="geometry" />
        </mxCell>
        <mxCell id="5MsSFUGhWeLwhrC4jnc_-1" value="&lt;u&gt;Mã phòng ban&lt;/u&gt;" style="ellipse;whiteSpace=wrap;html=1;" parent="5MsSFUGhWeLwhrC4jnc_-45" vertex="1">
          <mxGeometry x="-60" y="50" width="120" height="50" as="geometry" />
        </mxCell>
        <mxCell id="5MsSFUGhWeLwhrC4jnc_-22" value="" style="endArrow=none;html=1;rounded=0;exitX=1;exitY=0.5;exitDx=0;exitDy=0;entryX=0;entryY=0.5;entryDx=0;entryDy=0;" parent="5MsSFUGhWeLwhrC4jnc_-45" source="5MsSFUGhWeLwhrC4jnc_-1" target="GP8e4brnJldBaqmGKM5T-2" edge="1">
          <mxGeometry width="50" height="50" relative="1" as="geometry">
            <mxPoint x="130" y="175" as="sourcePoint" />
            <mxPoint x="170" y="100" as="targetPoint" />
          </mxGeometry>
        </mxCell>
        <mxCell id="5MsSFUGhWeLwhrC4jnc_-80" value="(1,n)" style="text;html=1;align=center;verticalAlign=middle;whiteSpace=wrap;rounded=0;" parent="5MsSFUGhWeLwhrC4jnc_-45" vertex="1">
          <mxGeometry x="230" y="140" width="60" height="30" as="geometry" />
        </mxCell>
        <mxCell id="5MsSFUGhWeLwhrC4jnc_-83" value="(1,1)" style="text;html=1;align=center;verticalAlign=middle;whiteSpace=wrap;rounded=0;" parent="5MsSFUGhWeLwhrC4jnc_-45" vertex="1">
          <mxGeometry x="130" y="180" width="60" height="30" as="geometry" />
        </mxCell>
        <mxCell id="5MsSFUGhWeLwhrC4jnc_-75" value="" style="ellipse;whiteSpace=wrap;html=1;" parent="5MsSFUGhWeLwhrC4jnc_-45" vertex="1">
          <mxGeometry x="-80" y="125" width="140" height="60" as="geometry" />
        </mxCell>
        <mxCell id="5MsSFUGhWeLwhrC4jnc_-21" value="" style="endArrow=none;html=1;rounded=0;exitX=1;exitY=0.5;exitDx=0;exitDy=0;entryX=0;entryY=0.5;entryDx=0;entryDy=0;" parent="5MsSFUGhWeLwhrC4jnc_-45" source="5MsSFUGhWeLwhrC4jnc_-75" target="GP8e4brnJldBaqmGKM5T-2" edge="1">
          <mxGeometry width="50" height="50" relative="1" as="geometry">
            <mxPoint x="210" y="190" as="sourcePoint" />
            <mxPoint x="260" y="140" as="targetPoint" />
          </mxGeometry>
        </mxCell>
        <mxCell id="5MsSFUGhWeLwhrC4jnc_-2" value="Địa điểm" style="ellipse;whiteSpace=wrap;html=1;" parent="5MsSFUGhWeLwhrC4jnc_-45" vertex="1">
          <mxGeometry x="-70" y="130" width="120" height="50" as="geometry" />
        </mxCell>
        <mxCell id="5MsSFUGhWeLwhrC4jnc_-47" value="Ngày nhận chức" style="ellipse;whiteSpace=wrap;html=1;" parent="1" vertex="1">
          <mxGeometry x="-30" y="510" width="120" height="50" as="geometry" />
        </mxCell>
        <mxCell id="5MsSFUGhWeLwhrC4jnc_-48" value="" style="endArrow=none;html=1;rounded=0;entryX=0;entryY=0.5;entryDx=0;entryDy=0;exitX=1;exitY=0.5;exitDx=0;exitDy=0;" parent="1" source="5MsSFUGhWeLwhrC4jnc_-47" target="5MsSFUGhWeLwhrC4jnc_-42" edge="1">
          <mxGeometry width="50" height="50" relative="1" as="geometry">
            <mxPoint x="30" y="650" as="sourcePoint" />
            <mxPoint x="80" y="600" as="targetPoint" />
          </mxGeometry>
        </mxCell>
        <mxCell id="5MsSFUGhWeLwhrC4jnc_-49" value="" style="group" parent="1" vertex="1" connectable="0">
          <mxGeometry x="610" y="200" width="320" height="220" as="geometry" />
        </mxCell>
        <mxCell id="5MsSFUGhWeLwhrC4jnc_-3" value="Đề án" style="rounded=0;whiteSpace=wrap;html=1;" parent="5MsSFUGhWeLwhrC4jnc_-49" vertex="1">
          <mxGeometry y="80" width="120" height="60" as="geometry" />
        </mxCell>
        <mxCell id="5MsSFUGhWeLwhrC4jnc_-4" value="&lt;u&gt;Tên đề án&lt;/u&gt;" style="ellipse;whiteSpace=wrap;html=1;" parent="5MsSFUGhWeLwhrC4jnc_-49" vertex="1">
          <mxGeometry x="200" width="120" height="50" as="geometry" />
        </mxCell>
        <mxCell id="5MsSFUGhWeLwhrC4jnc_-5" value="&lt;u&gt;Mã đề án&lt;/u&gt;" style="ellipse;whiteSpace=wrap;html=1;" parent="5MsSFUGhWeLwhrC4jnc_-49" vertex="1">
          <mxGeometry x="200" y="100" width="120" height="50" as="geometry" />
        </mxCell>
        <mxCell id="5MsSFUGhWeLwhrC4jnc_-26" value="" style="endArrow=none;html=1;rounded=0;exitX=1;exitY=0.5;exitDx=0;exitDy=0;entryX=0;entryY=0.5;entryDx=0;entryDy=0;" parent="5MsSFUGhWeLwhrC4jnc_-49" source="5MsSFUGhWeLwhrC4jnc_-3" target="5MsSFUGhWeLwhrC4jnc_-5" edge="1">
          <mxGeometry width="50" height="50" relative="1" as="geometry">
            <mxPoint x="180" y="210" as="sourcePoint" />
            <mxPoint x="230" y="160" as="targetPoint" />
          </mxGeometry>
        </mxCell>
        <mxCell id="5MsSFUGhWeLwhrC4jnc_-27" value="" style="endArrow=none;html=1;rounded=0;exitX=1;exitY=0.5;exitDx=0;exitDy=0;entryX=0;entryY=0.5;entryDx=0;entryDy=0;" parent="5MsSFUGhWeLwhrC4jnc_-49" source="5MsSFUGhWeLwhrC4jnc_-3" target="5MsSFUGhWeLwhrC4jnc_-4" edge="1">
          <mxGeometry width="50" height="50" relative="1" as="geometry">
            <mxPoint x="130" y="120" as="sourcePoint" />
            <mxPoint x="210" y="135" as="targetPoint" />
          </mxGeometry>
        </mxCell>
        <mxCell id="5MsSFUGhWeLwhrC4jnc_-28" value="Địa điểm" style="ellipse;whiteSpace=wrap;html=1;" parent="5MsSFUGhWeLwhrC4jnc_-49" vertex="1">
          <mxGeometry x="200" y="180" width="120" height="40" as="geometry" />
        </mxCell>
        <mxCell id="5MsSFUGhWeLwhrC4jnc_-29" value="" style="endArrow=none;html=1;rounded=0;entryX=1;entryY=0.5;entryDx=0;entryDy=0;exitX=0;exitY=0.5;exitDx=0;exitDy=0;" parent="5MsSFUGhWeLwhrC4jnc_-49" source="5MsSFUGhWeLwhrC4jnc_-28" target="5MsSFUGhWeLwhrC4jnc_-3" edge="1">
          <mxGeometry width="50" height="50" relative="1" as="geometry">
            <mxPoint x="-10" y="260" as="sourcePoint" />
            <mxPoint x="40" y="210" as="targetPoint" />
          </mxGeometry>
        </mxCell>
        <mxCell id="5MsSFUGhWeLwhrC4jnc_-50" value="Tham gia" style="rhombus;whiteSpace=wrap;html=1;" parent="1" vertex="1">
          <mxGeometry x="520" y="490" width="80" height="80" as="geometry" />
        </mxCell>
        <mxCell id="5MsSFUGhWeLwhrC4jnc_-51" value="" style="endArrow=none;html=1;rounded=0;exitX=1;exitY=0.5;exitDx=0;exitDy=0;entryX=0;entryY=1;entryDx=0;entryDy=0;" parent="1" source="5MsSFUGhWeLwhrC4jnc_-7" target="5MsSFUGhWeLwhrC4jnc_-50" edge="1">
          <mxGeometry width="50" height="50" relative="1" as="geometry">
            <mxPoint x="460" y="790" as="sourcePoint" />
            <mxPoint x="510" y="740" as="targetPoint" />
          </mxGeometry>
        </mxCell>
        <mxCell id="5MsSFUGhWeLwhrC4jnc_-52" value="" style="endArrow=none;html=1;rounded=0;exitX=1;exitY=0;exitDx=0;exitDy=0;entryX=0.5;entryY=1;entryDx=0;entryDy=0;" parent="1" source="5MsSFUGhWeLwhrC4jnc_-50" target="5MsSFUGhWeLwhrC4jnc_-3" edge="1">
          <mxGeometry width="50" height="50" relative="1" as="geometry">
            <mxPoint x="620" y="490" as="sourcePoint" />
            <mxPoint x="670" y="440" as="targetPoint" />
          </mxGeometry>
        </mxCell>
        <mxCell id="5MsSFUGhWeLwhrC4jnc_-53" value="Số giở làm" style="ellipse;whiteSpace=wrap;html=1;" parent="1" vertex="1">
          <mxGeometry x="620" y="530" width="120" height="40" as="geometry" />
        </mxCell>
        <mxCell id="5MsSFUGhWeLwhrC4jnc_-54" value="" style="endArrow=none;html=1;rounded=0;exitX=1;exitY=1;exitDx=0;exitDy=0;entryX=0;entryY=0.5;entryDx=0;entryDy=0;" parent="1" source="5MsSFUGhWeLwhrC4jnc_-50" target="5MsSFUGhWeLwhrC4jnc_-53" edge="1">
          <mxGeometry width="50" height="50" relative="1" as="geometry">
            <mxPoint x="640" y="720" as="sourcePoint" />
            <mxPoint x="690" y="670" as="targetPoint" />
          </mxGeometry>
        </mxCell>
        <mxCell id="5MsSFUGhWeLwhrC4jnc_-55" value="Làm việc" style="rhombus;whiteSpace=wrap;html=1;" parent="1" vertex="1">
          <mxGeometry x="300" y="505" width="80" height="90" as="geometry" />
        </mxCell>
        <mxCell id="5MsSFUGhWeLwhrC4jnc_-56" value="" style="endArrow=none;html=1;rounded=0;entryX=0.5;entryY=1;entryDx=0;entryDy=0;exitX=0.5;exitY=0;exitDx=0;exitDy=0;" parent="1" source="5MsSFUGhWeLwhrC4jnc_-55" target="GP8e4brnJldBaqmGKM5T-2" edge="1">
          <mxGeometry width="50" height="50" relative="1" as="geometry">
            <mxPoint x="310" y="460" as="sourcePoint" />
            <mxPoint x="360" y="410" as="targetPoint" />
          </mxGeometry>
        </mxCell>
        <mxCell id="5MsSFUGhWeLwhrC4jnc_-57" value="" style="endArrow=none;html=1;rounded=0;entryX=0.5;entryY=1;entryDx=0;entryDy=0;exitX=0.5;exitY=0;exitDx=0;exitDy=0;" parent="1" source="5MsSFUGhWeLwhrC4jnc_-7" target="5MsSFUGhWeLwhrC4jnc_-55" edge="1">
          <mxGeometry width="50" height="50" relative="1" as="geometry">
            <mxPoint x="310" y="680" as="sourcePoint" />
            <mxPoint x="360" y="630" as="targetPoint" />
          </mxGeometry>
        </mxCell>
        <mxCell id="5MsSFUGhWeLwhrC4jnc_-58" value="Chủ trì" style="rhombus;whiteSpace=wrap;html=1;" parent="1" vertex="1">
          <mxGeometry x="440" y="270" width="80" height="80" as="geometry" />
        </mxCell>
        <mxCell id="5MsSFUGhWeLwhrC4jnc_-59" value="" style="endArrow=none;html=1;rounded=0;exitX=1;exitY=0.5;exitDx=0;exitDy=0;entryX=0;entryY=0.5;entryDx=0;entryDy=0;" parent="1" source="GP8e4brnJldBaqmGKM5T-2" target="5MsSFUGhWeLwhrC4jnc_-58" edge="1">
          <mxGeometry width="50" height="50" relative="1" as="geometry">
            <mxPoint x="400" y="430" as="sourcePoint" />
            <mxPoint x="450" y="380" as="targetPoint" />
          </mxGeometry>
        </mxCell>
        <mxCell id="5MsSFUGhWeLwhrC4jnc_-60" value="" style="endArrow=none;html=1;rounded=0;exitX=1;exitY=0.5;exitDx=0;exitDy=0;entryX=0;entryY=0.5;entryDx=0;entryDy=0;" parent="1" source="5MsSFUGhWeLwhrC4jnc_-58" target="5MsSFUGhWeLwhrC4jnc_-3" edge="1">
          <mxGeometry width="50" height="50" relative="1" as="geometry">
            <mxPoint x="520" y="390" as="sourcePoint" />
            <mxPoint x="620" y="400" as="targetPoint" />
          </mxGeometry>
        </mxCell>
        <mxCell id="5MsSFUGhWeLwhrC4jnc_-61" value="Tên" style="ellipse;whiteSpace=wrap;html=1;" parent="1" vertex="1">
          <mxGeometry x="80" y="1170" width="120" height="35" as="geometry" />
        </mxCell>
        <mxCell id="5MsSFUGhWeLwhrC4jnc_-62" value="Phái" style="ellipse;whiteSpace=wrap;html=1;" parent="1" vertex="1">
          <mxGeometry x="160" y="1230" width="120" height="30" as="geometry" />
        </mxCell>
        <mxCell id="5MsSFUGhWeLwhrC4jnc_-63" value="Ngày sinh" style="ellipse;whiteSpace=wrap;html=1;" parent="1" vertex="1">
          <mxGeometry x="320" y="1230" width="120" height="30" as="geometry" />
        </mxCell>
        <mxCell id="5MsSFUGhWeLwhrC4jnc_-64" value="" style="endArrow=none;html=1;rounded=0;exitX=0.5;exitY=0;exitDx=0;exitDy=0;entryX=0.5;entryY=1;entryDx=0;entryDy=0;" parent="1" source="5MsSFUGhWeLwhrC4jnc_-61" target="5MsSFUGhWeLwhrC4jnc_-35" edge="1">
          <mxGeometry width="50" height="50" relative="1" as="geometry">
            <mxPoint x="-30" y="1250" as="sourcePoint" />
            <mxPoint x="20" y="1200" as="targetPoint" />
          </mxGeometry>
        </mxCell>
        <mxCell id="5MsSFUGhWeLwhrC4jnc_-65" value="" style="endArrow=none;html=1;rounded=0;exitX=0.5;exitY=0;exitDx=0;exitDy=0;entryX=0.5;entryY=1;entryDx=0;entryDy=0;" parent="1" source="5MsSFUGhWeLwhrC4jnc_-62" target="5MsSFUGhWeLwhrC4jnc_-35" edge="1">
          <mxGeometry width="50" height="50" relative="1" as="geometry">
            <mxPoint x="220" y="1200" as="sourcePoint" />
            <mxPoint x="310" y="1130" as="targetPoint" />
          </mxGeometry>
        </mxCell>
        <mxCell id="5MsSFUGhWeLwhrC4jnc_-66" value="" style="endArrow=none;html=1;rounded=0;exitX=0.5;exitY=0;exitDx=0;exitDy=0;entryX=0.5;entryY=1;entryDx=0;entryDy=0;" parent="1" source="5MsSFUGhWeLwhrC4jnc_-63" target="5MsSFUGhWeLwhrC4jnc_-35" edge="1">
          <mxGeometry width="50" height="50" relative="1" as="geometry">
            <mxPoint x="324" y="1200" as="sourcePoint" />
            <mxPoint x="414" y="1130" as="targetPoint" />
          </mxGeometry>
        </mxCell>
        <mxCell id="5MsSFUGhWeLwhrC4jnc_-68" value="Mối quan hệ" style="ellipse;whiteSpace=wrap;html=1;" parent="1" vertex="1">
          <mxGeometry x="430" y="1175" width="120" height="30" as="geometry" />
        </mxCell>
        <mxCell id="5MsSFUGhWeLwhrC4jnc_-69" value="" style="endArrow=none;html=1;rounded=0;exitX=0.5;exitY=1;exitDx=0;exitDy=0;entryX=0.5;entryY=0;entryDx=0;entryDy=0;" parent="1" source="5MsSFUGhWeLwhrC4jnc_-35" target="5MsSFUGhWeLwhrC4jnc_-68" edge="1">
          <mxGeometry width="50" height="50" relative="1" as="geometry">
            <mxPoint x="440" y="1150" as="sourcePoint" />
            <mxPoint x="490" y="1100" as="targetPoint" />
          </mxGeometry>
        </mxCell>
        <mxCell id="5MsSFUGhWeLwhrC4jnc_-71" value="Người quản lý" style="rhombus;whiteSpace=wrap;html=1;" parent="1" vertex="1">
          <mxGeometry x="480" y="880" width="110" height="80" as="geometry" />
        </mxCell>
        <mxCell id="5MsSFUGhWeLwhrC4jnc_-72" value="" style="endArrow=none;html=1;rounded=0;exitX=1;exitY=1;exitDx=0;exitDy=0;entryX=0;entryY=0.5;entryDx=0;entryDy=0;" parent="1" source="5MsSFUGhWeLwhrC4jnc_-7" target="5MsSFUGhWeLwhrC4jnc_-71" edge="1">
          <mxGeometry width="50" height="50" relative="1" as="geometry">
            <mxPoint x="460" y="1000" as="sourcePoint" />
            <mxPoint x="510" y="950" as="targetPoint" />
          </mxGeometry>
        </mxCell>
        <mxCell id="5MsSFUGhWeLwhrC4jnc_-74" value="" style="endArrow=none;html=1;rounded=0;exitX=1;exitY=1;exitDx=0;exitDy=0;entryX=0.5;entryY=0;entryDx=0;entryDy=0;" parent="1" source="5MsSFUGhWeLwhrC4jnc_-7" target="5MsSFUGhWeLwhrC4jnc_-71" edge="1">
          <mxGeometry width="50" height="50" relative="1" as="geometry">
            <mxPoint x="470" y="870" as="sourcePoint" />
            <mxPoint x="520" y="820" as="targetPoint" />
          </mxGeometry>
        </mxCell>
        <mxCell id="5MsSFUGhWeLwhrC4jnc_-77" value="(0,n)" style="text;html=1;align=center;verticalAlign=middle;whiteSpace=wrap;rounded=0;" parent="1" vertex="1">
          <mxGeometry x="355" y="280" width="60" height="30" as="geometry" />
        </mxCell>
        <mxCell id="5MsSFUGhWeLwhrC4jnc_-79" value="(1,1)" style="text;html=1;align=center;verticalAlign=middle;whiteSpace=wrap;rounded=0;" parent="1" vertex="1">
          <mxGeometry x="530" y="280" width="60" height="30" as="geometry" />
        </mxCell>
        <mxCell id="5MsSFUGhWeLwhrC4jnc_-81" value="(1,1)" style="text;html=1;align=center;verticalAlign=middle;whiteSpace=wrap;rounded=0;" parent="1" vertex="1">
          <mxGeometry x="330" y="650" width="60" height="30" as="geometry" />
        </mxCell>
        <mxCell id="5MsSFUGhWeLwhrC4jnc_-82" value="(0,1)" style="text;html=1;align=center;verticalAlign=middle;whiteSpace=wrap;rounded=0;" parent="1" vertex="1">
          <mxGeometry x="180" y="640" width="60" height="30" as="geometry" />
        </mxCell>
        <mxCell id="GP8e4brnJldBaqmGKM5T-1" value="&lt;u&gt;Tên phòng bàn&lt;/u&gt;" style="ellipse;whiteSpace=wrap;html=1;" parent="1" vertex="1">
          <mxGeometry x="30" y="190" width="120" height="50" as="geometry" />
        </mxCell>
        <mxCell id="5MsSFUGhWeLwhrC4jnc_-23" value="" style="endArrow=none;html=1;rounded=0;exitX=1;exitY=0.5;exitDx=0;exitDy=0;entryX=0;entryY=0.5;entryDx=0;entryDy=0;" parent="1" source="GP8e4brnJldBaqmGKM5T-1" target="GP8e4brnJldBaqmGKM5T-2" edge="1">
          <mxGeometry width="50" height="50" relative="1" as="geometry">
            <mxPoint x="190" y="325" as="sourcePoint" />
            <mxPoint x="230" y="320" as="targetPoint" />
          </mxGeometry>
        </mxCell>
        <mxCell id="5MsSFUGhWeLwhrC4jnc_-84" value="(1,n)" style="text;html=1;align=center;verticalAlign=middle;whiteSpace=wrap;rounded=0;" parent="1" vertex="1">
          <mxGeometry x="430" y="820" width="60" height="30" as="geometry" />
        </mxCell>
        <mxCell id="5MsSFUGhWeLwhrC4jnc_-85" value="(1,1)" style="text;html=1;align=center;verticalAlign=middle;whiteSpace=wrap;rounded=0;" parent="1" vertex="1">
          <mxGeometry x="390" y="880" width="60" height="30" as="geometry" />
        </mxCell>
        <mxCell id="5MsSFUGhWeLwhrC4jnc_-88" value="(1,1)" style="text;html=1;align=center;verticalAlign=middle;whiteSpace=wrap;rounded=0;" parent="1" vertex="1">
          <mxGeometry x="300" y="1020" width="60" height="30" as="geometry" />
        </mxCell>
        <mxCell id="5MsSFUGhWeLwhrC4jnc_-89" value="(0,n)" style="text;html=1;align=center;verticalAlign=middle;whiteSpace=wrap;rounded=0;" parent="1" vertex="1">
          <mxGeometry x="380" y="720" width="60" height="30" as="geometry" />
        </mxCell>
        <mxCell id="5MsSFUGhWeLwhrC4jnc_-90" value="(1,n)" style="text;html=1;align=center;verticalAlign=middle;whiteSpace=wrap;rounded=0;" parent="1" vertex="1">
          <mxGeometry x="620" y="410" width="60" height="30" as="geometry" />
        </mxCell>
        <mxCell id="5MsSFUGhWeLwhrC4jnc_-91" value="" style="endArrow=none;dashed=1;html=1;dashPattern=1 3;strokeWidth=2;rounded=0;" parent="1" edge="1">
          <mxGeometry width="50" height="50" relative="1" as="geometry">
            <mxPoint x="122.5" y="1196" as="sourcePoint" />
            <mxPoint x="157.5" y="1196" as="targetPoint" />
            <Array as="points">
              <mxPoint x="157.5" y="1196" />
            </Array>
          </mxGeometry>
        </mxCell>
      </root>
    </mxGraphModel>
  </diagram>
</mxfile>
